<?xml version="1.0" encoding="UTF-8" standalone="no"?>
<svg
   version="1.0"
   width="500.000000pt"
   height="900.000000pt"
   viewBox="0 0 800.000000 600.000000"
   preserveAspectRatio="xMidYMid meet"
   id="svg8"
   sodipodi:docname="bgprofile.svg"
   inkscape:version="1.1 (c4e8f9ed74, 2021-05-24)"
   xmlns:inkscape="http://www.inkscape.org/namespaces/inkscape"
   xmlns:sodipodi="http://sodipodi.sourceforge.net/DTD/sodipodi-0.dtd"
   xmlns:xlink="http://www.w3.org/1999/xlink"
   xmlns="http://www.w3.org/2000/svg"
   xmlns:svg="http://www.w3.org/2000/svg">
  <defs
     id="defs12">
    <linearGradient
       inkscape:collect="always"
       id="linearGradient421">
      <stop
         style="stop-color:#aa4400;stop-opacity:1;"
         offset="0"
         id="stop417" />
      <stop
         style="stop-color:#ff7f2a;stop-opacity:1"
         offset="1"
         id="stop419" />
    </linearGradient>
    <linearGradient
       inkscape:collect="always"
       xlink:href="#linearGradient421"
       id="linearGradient423"
       x1="442.52689"
       y1="146.77603"
       x2="718.13599"
       y2="593.6665"
       gradientUnits="userSpaceOnUse"
       gradientTransform="matrix(0.76837825,0,0,1.7686225,-17.462418,-600.85402)" />
  </defs>
  <sodipodi:namedview
     id="namedview10"
     pagecolor="#ffffff"
     bordercolor="#666666"
     borderopacity="1.0"
     inkscape:pageshadow="2"
     inkscape:pageopacity="0.0"
     inkscape:pagecheckerboard="0"
     inkscape:document-units="pt"
     showgrid="false"
     inkscape:zoom="0.66125"
     inkscape:cx="533.08129"
     inkscape:cy="179.20605"
     inkscape:window-width="1366"
     inkscape:window-height="718"
     inkscape:window-x="0"
     inkscape:window-y="24"
     inkscape:window-maximized="1"
     inkscape:current-layer="svg8" />
  <g
     transform="matrix(0.1,0,0,-0.20908219,-6.6963299,748.32557)"
     fill="#000000"
     stroke="none"
     id="g6">
    <path
       d="m 3435,5291 c -231,-4 -413,-8 -405,-10 37,-9 -100,-19 -267,-20 -109,-1 -184,-5 -188,-11 -4,-6 -91,-10 -228,-10 -147,0 -217,-4 -207,-10 13,-9 13,-10 0,-11 -19,-1 -443,-19 -612,-25 -71,-3 -128,-9 -128,-14 0,-10 -57,-40 -77,-40 -7,0 -13,-9 -13,-20 0,-11 -7,-23 -15,-26 -8,-4 -13,-10 -10,-14 3,-4 -2,-13 -10,-20 -8,-7 -15,-17 -15,-23 0,-6 -9,-21 -21,-33 -20,-22 -21,-28 -13,-263 4,-133 10,-241 14,-241 4,0 11,-7 14,-16 3,-8 2,-12 -3,-9 -5,3 -12,1 -16,-5 -3,-5 -1,-10 4,-10 6,0 11,-7 11,-15 0,-8 -4,-15 -9,-15 -12,0 -8,-39 7,-67 17,-31 14,-43 -3,-13 l -14,25 -1,-33 c 0,-18 4,-31 9,-28 14,9 21,-79 21,-285 0,-123 4,-199 10,-199 6,0 6,-9 0,-26 -14,-35 -13,-1051 0,-1059 13,-8 13,-78 1,-90 -5,-6 -11,-192 -13,-425 -2,-306 -6,-420 -16,-438 -6,-13 -12,-42 -12,-63 0,-22 -4,-39 -10,-39 -6,0 -10,-28 -10,-65 0,-36 4,-65 9,-65 6,0 9,-82 8,-201 -2,-181 0,-202 15,-213 10,-7 18,-17 18,-22 0,-14 50,-32 113,-39 31,-3 55,-10 52,-15 -3,-5 59,-11 137,-14 79,-2 222,-9 318,-14 96,-6 202,-11 235,-12 39,-1 53,-4 40,-9 -36,-14 588,-21 1990,-21 1411,0 1987,6 1963,21 -8,6 4,9 32,10 25,0 115,5 200,10 85,6 229,12 319,15 95,4 158,10 150,14 -7,5 52,6 133,3 l 146,-6 45,63 c 27,36 48,78 52,101 4,21 11,41 16,45 11,6 12,3569 1,3626 -6,33 -58,113 -145,226 -15,20 -38,37 -50,39 -12,2 -23,8 -25,13 -2,6 -62,10 -142,10 -82,0 -141,4 -145,10 -4,6 -73,10 -173,10 -185,0 -304,9 -296,21 2,5 -93,10 -213,13 -120,3 -317,9 -438,14 -121,5 -239,10 -263,11 -26,1 -41,5 -37,11 4,7 -74,10 -228,10 -128,0 -449,2 -713,3 -263,2 -668,1 -899,-2 z m 3512,-304 38,-37 3,-1813 c 2,-1794 2,-1812 -18,-1845 -11,-18 -34,-41 -52,-52 -33,-20 -56,-20 -2709,-20 H 1533 l -33,23 c -19,12 -42,36 -52,53 -17,29 -18,116 -18,1826 0,1066 3,1805 9,1819 10,26 57,73 81,82 8,3 1224,5 2702,4 l 2688,-2 z"
       id="path2" />
    <path
       d="m 1509,4951 -29,-29 V 3125 1328 l 29,-29 29,-29 h 2672 2672 l 29,29 29,29 v 1797 1797 l -29,29 -29,29 H 4210 1538 Z"
       id="path4" />
  </g>
  <path
     style="fill:url(#linearGradient423);fill-opacity:1;stroke-width:1.76295"
     d="m 137.28731,506.95376 -2.52657,-6.19037 V 76.798846 -347.16568 l 2.68941,-5.81556 2.68941,-5.81556 h 273.66611 273.66611 l 2.52657,6.19039 2.52658,6.19037 V 77.548506 501.51301 l -2.68941,5.81558 -2.68941,5.81554 H 413.47998 139.81388 Z"
     id="path126" />
  <path
     style="fill:#dca700;fill-opacity:1;stroke:#632800;stroke-width:1.69381;stroke-linejoin:bevel;stroke-miterlimit:4;stroke-dasharray:none;stroke-opacity:0.988814"
     d="m 241.69687,536.92861 c -17.15501,-0.74888 -31.70132,-2.0868 -32.32514,-2.97319 -0.62382,-0.8864 -15.42533,-2.9614 -32.89225,-4.61113 -33.61629,-3.17501 -50.60487,-8.47432 -56.14367,-17.51304 -2.7876,-4.54912 -2.85112,-5.43565 -3.75715,-52.44193 -1.30116,-67.50687 -1.2933,-68.63016 0.61835,-88.30185 2.25092,-23.16305 3.40565,-145.09221 3.28316,-346.672313 -0.0943,-155.248847 -0.84799,-220.522427 -2.57363,-222.901827 -0.53535,-0.73816 -0.97337,-2.48083 -0.97337,-3.87258 0,-1.39175 0.51039,-1.82669 1.13421,-0.96655 1.43793,1.98267 1.45915,-4.08994 0.0434,-12.39796 -0.70455,-4.13432 -0.69813,-6.9428 0.0181,-7.9304 0.61079,-0.84219 0.79951,-5.71368 0.42009,-10.84402 -0.37889,-5.1232 -1.20727,-31.81275 -1.84084,-59.31015 l -1.15195,-49.99524 4.65827,-16.57534 c 2.56205,-9.11643 4.65828,-17.37026 4.65828,-18.34185 0,-2.1745 9.73064,-12.25317 13.61059,-14.09737 1.55954,-0.74126 17.89224,-2.6519 36.29489,-4.24581 18.40265,-1.59395 33.71455,-3.79623 34.02646,-4.89401 0.31191,-1.09777 10.51986,-2.7174 22.68432,-3.59916 12.16446,-0.88179 30.79395,-2.62776 41.39886,-3.87994 50.95976,-6.0171 75.18808,-7.30835 135.53875,-7.22346 35.86957,0.0504 75.93573,0.99972 89.03592,2.1095 41.01899,3.4749 110.25515,11.21686 133.27032,14.90226 8.42156,1.34854 25.16718,3.63457 37.21249,5.08011 15.29005,1.8349 22.99303,3.80032 25.51985,6.51134 3.60213,3.8647 13.71623,32.76002 17.94667,51.27251 2.04228,8.93706 2.11873,23.6608 2.11873,408.089113 0,443.396097 0.55353,411.825107 -7.7073,439.582777 l -4.12689,13.86703 -11.10897,-1.75713 c -6.36907,-1.00739 -15.33797,-0.59724 -21.02052,0.96135 -14.72134,4.03767 -63.5136,10.28119 -98.94748,12.66151 -33.95418,2.2809 -278.48621,2.51041 -328.92249,0.30875 z m 446.84412,-54.8493 3.17964,-7.93957 0.86399,-55.32183 c 0.47519,-30.427 0.52465,-214.13761 0.1099,-408.245794 l -0.75406,-352.923986 -3.60515,-8.29845 -3.60516,-8.29844 H 414.29261 143.85508 l -3.83367,9.06877 -3.83366,9.0688 0.2971,407.050768 0.29709,407.050752 3.91986,9.02257 3.91986,9.02257 270.36983,-0.65833 270.36983,-0.65829 z"
     id="path3821" />
  <path
     style="fill:#ff0000;fill-opacity:1;stroke:#632800;stroke-width:1.134;stroke-linejoin:bevel;stroke-miterlimit:4;stroke-dasharray:none;stroke-opacity:0.988814"
     id="path13395"
     d="m 156.72991,-405.30301 c -2.35301,-5.19159 -6.20184,-9.12907 -10.67848,-12.52625 -4.657,-3.26208 -9.99892,-4.86896 -15.57528,-5.55586 -6.72066,-1.03829 -12.2512,0.65622 -18.58773,2.60859 -2.97514,1.04444 -6.09811,1.85555 -8.82503,3.50024 -7.26715,4.38305 -10.50611,5.14765 -14.3733,10.83026 -2.28623,3.2881 -3.11209,7.1604 -3.59128,11.0624 -0.1583,2.96908 -0.61638,5.9908 0.45473,8.81931 0.30368,0.44177 0.53365,0.94456 0.91103,1.32532 3.19595,3.22458 9.59475,3.98539 13.79114,4.73847 6.84989,1.14154 13.78998,1.40786 20.71862,1.55448 6.23797,0.0851 12.47668,0.0452 18.715,0.0397 3.79383,0.0371 7.61037,-0.22471 11.35977,0.51091 2.22404,0.43635 3.2128,0.86826 5.37769,1.61892 5.86328,2.23733 10.39288,6.40209 14.4758,11.02651 4.04512,4.26947 5.42553,9.70912 6.31029,15.34695 0.86686,5.84099 0.76155,11.69845 -1.03541,17.36468 -0.37019,1.16731 -0.88039,2.2855 -1.32059,3.42826 -3.28811,8.39077 -9.6742,13.43397 -16.67048,18.64006 -5.20866,3.64469 -10.30082,7.47408 -15.71279,10.81929 -1.27147,0.78592 -5.09485,3.12376 -3.86383,2.27589 1.71453,-1.18088 3.54463,-2.18448 5.31694,-3.27672 -8.38074,4.24698 -17.65092,5.44458 -26.88534,6.1999 -7.60648,0.31536 -14.04424,-0.94782 -20.58467,-4.82072 -3.72893,-2.46162 -6.68489,-5.76338 -8.40961,-9.88171 -1.17523,-3.34816 -1.21025,-6.90687 -1.27441,-10.41169 0.0657,-5.23454 1.91447,-8.808 4.81712,-13.01951 4.18837,-5.19085 9.54881,-9.28324 14.88863,-13.21741 0.9512,-0.61671 3.84125,-2.40657 2.85359,-1.85012 -12.56484,7.07907 -6.43191,3.72734 -3.60709,2.58047 2.4441,-0.99231 4.91569,-1.56263 7.49552,-2.05047 4.57674,-0.85772 8.12094,-0.28212 12.06447,2.11722 2.62676,1.77915 4.48569,4.07517 5.33702,7.11864 0.78392,3.93378 0.86253,7.94423 0.23622,11.89687 -0.42,2.04638 -1.20357,3.83441 -2.74662,5.2864 -0.51327,0.48297 -2.29728,1.62415 -1.68075,1.2827 10.28085,-5.69368 9.4517,-5.22113 5.05524,-3.56557 -5.28647,1.3881 -10.7797,1.76464 -16.14323,0.68245 -3.00255,-0.79034 -4.78961,-1.25639 -5.63268,-4.39152 -0.37572,-1.50875 0.10604,-2.65007 1.38533,-3.50482 0.37613,-0.25131 1.55901,-0.91852 1.16844,-0.69028 -2.68449,1.56879 -5.36681,3.14128 -8.05022,4.71191 4.91074,-2.53178 10.45614,-3.10074 15.87113,-3.62022 4.20267,-0.21759 8.43752,-0.70584 12.64545,-0.27853 3.24764,0.32979 4.66327,0.77516 7.90101,1.52854 8.93151,2.55795 17.59617,5.82161 26.87193,7.02695 3.17541,0.41262 6.37757,0.58379 9.56635,0.87569 15.89778,0.68237 31.34062,-3.14433 46.73035,-6.48868 0,0 7.06636,-5.36726 7.06636,-5.36726 v 0 c -15.02658,3.22375 -30.09584,6.90554 -45.61197,6.02992 -3.09812,-0.32026 -6.21051,-0.52398 -9.29435,-0.96078 -9.14503,-1.29532 -17.67611,-4.62917 -26.47712,-7.2271 -3.19328,-0.82351 -4.70303,-1.32253 -7.92038,-1.74773 -4.2308,-0.55915 -8.4886,-0.0991 -12.72422,0.12709 -5.41813,0.46635 -10.93963,0.91434 -15.98488,3.11666 -3.6535,2.12099 -7.34301,4.18114 -10.96052,6.36298 -1.99063,1.20061 -2.54996,3.31024 -1.99469,5.45874 1.08664,3.53652 2.86337,4.43442 6.38761,5.33279 5.46955,1.22252 11.04742,0.94091 16.51793,-0.22931 6.33432,-1.86966 3.34822,-0.78181 13.86577,-7.32583 1.03505,-0.644 2.26917,-2.25209 2.83661,-3.29882 0.77672,-1.43281 0.89703,-2.43148 1.26206,-3.9986 0.53322,-4.10185 0.47059,-8.28202 -0.3898,-12.34149 -0.98946,-3.424 -2.87901,-5.72791 -5.78332,-7.80255 -4.20381,-2.68483 -7.57929,-3.52976 -12.58803,-2.73677 -9.67835,1.57478 -17.54462,6.1971 -25.63051,11.95405 -5.35199,4.03118 -10.75191,8.18789 -14.80881,13.58451 -2.90695,4.4358 -4.656802,8.27882 -4.650622,13.68287 0.06457,3.64776 0.14337,7.33598 1.470562,10.79008 1.86663,4.3112 4.97288,7.79192 8.8913,10.39739 6.88179,4.1821 13.08592,5.40179 21.14501,5.24868 9.27556,-0.71741 18.62857,-1.74558 27.12423,-5.84264 4.35743,-2.43516 8.73361,-4.83708 13.0723,-7.30546 6.83675,-3.8896 13.10421,-8.68511 19.52685,-13.19981 7.18761,-5.47502 13.2001,-10.54273 16.52901,-19.24651 0.42638,-1.18367 0.92022,-2.34516 1.27913,-3.551 1.7294,-5.81031 1.74062,-11.80507 0.87404,-17.76192 -0.91589,-5.84216 -2.32687,-11.52222 -6.5579,-15.92091 -4.19984,-4.7235 -8.84451,-9.04073 -14.78001,-11.4787 -5.96264,-2.2538 -10.59414,-2.80016 -16.96547,-2.4371 -6.24001,0.0223 -12.48034,0.0449 -18.72024,-0.008 -6.91411,-0.10598 -13.84402,-0.30674 -20.69091,-1.3649 -3.58114,-0.62558 -10.24112,-1.5427 -13.04902,-4.18294 -0.32098,-0.30181 -0.50205,-0.72415 -0.75308,-1.08622 -0.91212,-2.66596 -0.39038,-5.57174 -0.24371,-8.33331 0.4999,-3.76657 1.43337,-7.41581 3.74107,-10.52338 3.46259,-4.50872 6.78364,-5.14731 -4.28684,0.42209 -0.83172,0.41843 1.58856,-0.97849 2.42952,-1.378 1.71834,-0.81633 4.61714,-1.7617 6.37149,-2.3698 6.09433,-1.87865 11.69542,-3.86673 18.18719,-2.87124 5.45001,0.56552 10.72974,1.8946 15.3319,5.01779 4.33124,3.23605 8.11965,7.009 10.11589,12.15189 0,0 9.77058,-5.44707 9.77058,-5.44707 z" />
  <path
     style="fill:#ff0000;fill-opacity:1;stroke:#632800;stroke-width:1.134;stroke-linejoin:bevel;stroke-miterlimit:4;stroke-dasharray:none;stroke-opacity:0.988814"
     id="path13663"
     d="m 637.17798,485.07017 c 4.53506,-4.7079 8.57992,-9.88968 12.15832,-15.35594 1.99128,-3.46867 4.29983,-7.14338 3.8374,-11.28047 -1.61463,-3.82743 -5.93145,-5.5302 -9.54144,-7.00725 -5.22263,-1.82982 -6.67373,0.0598 -12.35822,3.87466 -0.47584,0.31935 -0.93182,2.74504 -0.99931,3.02971 -0.9381,5.51187 -0.34152,11.13018 0.50829,16.61111 1.10223,6.76026 2.50845,13.46228 3.43799,20.25034 1.0895,8.29032 1.10747,16.59812 0.15502,24.89092 -0.83535,4.75497 -2.1824,9.44095 -4.97008,13.45117 -1.50921,2.17106 -2.58192,3.03328 -4.47115,4.86741 2.38913,-0.94911 -7.24511,4.87928 -5.35347,3.78485 1.4095,-0.81549 2.98142,-1.44136 4.1534,-2.57193 0.71051,-0.68541 -1.79509,0.82488 -2.71465,1.18401 -2.43306,0.95024 -2.52369,0.87565 -4.96005,1.4088 -4.81728,0.62667 -6.68568,-1.5809 -8.32404,-5.76831 -1.24731,-4.74026 -1.70201,-9.03837 -0.2253,-13.7708 0.70666,-1.82754 1.87517,-3.40874 3.39913,-4.64706 0.46973,-0.38167 2.03772,-1.3053 1.51231,-1.00486 -6.90995,3.95128 -7.37095,4.02884 -3.96839,2.70174 4.30011,-1.39949 8.72801,-0.8742 13.10096,-0.1867 7.45055,1.75173 14.64642,4.39525 21.89676,6.81401 9.28761,2.86657 18.83445,4.79522 28.40896,6.41004 7.63872,1.06021 15.35897,1.9309 23.0709,1.37136 3.40698,-0.38704 6.41385,-1.84971 9.31152,-3.60462 7.78689,-4.71594 9.85743,-5.73028 15.45247,-11.09716 3.03685,-3.16701 5.84214,-6.53207 7.80738,-10.4822 0.85173,-1.71198 1.85264,-4.32787 2.5604,-6.10307 2.34277,-6.59687 2.79302,-13.64615 3.15375,-20.58016 0.33073,-4.63375 0.32693,-9.22854 -1.11627,-13.67601 -0.51489,-1.83279 -1.55441,-3.18823 -3.09463,-4.2465 -1.10669,-0.63937 -2.3254,-0.85189 -3.57278,-0.61365 -1.51627,0.27972 -2.94893,0.81727 -4.38217,1.36883 -0.85637,0.37801 -1.7287,0.71029 -2.5713,1.1187 0,0 -6.59913,5.25421 -6.59913,5.25421 v 0 c 0.85624,-0.39344 1.66676,-0.83997 2.56554,-1.13952 1.34724,-0.68161 2.8097,-1.16843 4.28217,-1.47587 1.1043,-0.34583 2.07682,-0.46238 3.17666,0.0573 1.47553,0.84794 2.39079,2.0467 2.88014,3.70274 1.45066,4.31567 1.41211,8.81261 1.13716,13.31967 -0.3463,6.86915 -0.83564,13.83735 -3.27373,20.33725 -0.84829,2.08435 -1.57349,4.00607 -2.61581,6.00622 -2.01107,3.85908 -4.84719,7.14645 -7.86655,10.24662 -0.86161,0.80482 -1.69452,1.64151 -2.58484,2.41445 -0.93617,0.81275 -4.00383,1.79285 -2.89118,2.33965 1.284,0.63101 2.43792,-1.88821 3.86829,-1.85946 1.23321,0.0248 -2.09334,1.31105 -3.19131,1.87308 -0.97768,0.50044 -1.98318,0.95779 -3.02403,1.3084 -0.91695,0.30888 -1.88412,0.44151 -2.82618,0.66225 -7.71051,0.72645 -15.44298,-0.094 -23.09801,-1.10609 -9.54641,-1.52925 -19.03663,-3.49614 -28.28758,-6.33593 -7.24697,-2.45827 -14.4557,-5.06464 -21.86826,-6.9907 -4.40237,-0.77913 -8.84907,-1.45796 -13.24328,-0.22584 -6.1405,1.93834 -12.54657,5.43125 -14.98503,11.62021 -1.22913,4.73537 -0.87409,9.56032 0.46421,14.25529 1.73745,4.39842 3.83524,7.1777 8.98216,6.71645 8.58814,-1.60784 16.28216,-6.45637 22.99288,-11.91101 1.96186,-2.00664 2.84231,-2.70901 4.38253,-5.06612 2.70006,-4.13212 3.98193,-8.89464 4.75425,-13.71739 0.89284,-8.36397 0.85635,-16.73813 -0.19235,-25.09656 -0.93658,-6.79461 -2.31923,-13.50869 -3.4077,-20.27897 -0.79824,-5.40439 -1.36846,-10.96161 -0.21235,-16.36054 0.18175,-0.52171 0.28981,-1.07527 0.54525,-1.56513 0.1852,-0.35514 1.12252,-1.09743 0.75737,-0.93286 -2.20649,0.99445 -4.25305,2.31118 -6.37957,3.46677 0.35661,-0.081 0.70478,-0.22127 1.06983,-0.24299 1.09407,-0.0651 1.90284,0.26769 2.95604,0.55594 3.27055,1.2509 7.55152,2.80296 9.00541,6.25814 0.26847,3.91276 -2.0395,7.4145 -3.89596,10.69026 -3.6398,5.47227 -7.71665,10.68027 -12.41405,15.29073 0,0 7.7353,-3.21159 7.7353,-3.21159 z" />
</svg>
