<?xml version="1.0" encoding="UTF-8" standalone="no"?>
<svg
   version="1.0"
   width="500.000000pt"
   height="900.000000pt"
   viewBox="0 0 800.000000 600.000000"
   preserveAspectRatio="xMidYMid meet"
   id="svg8"
   sodipodi:docname="border.svg"
   inkscape:version="1.1 (c4e8f9ed74, 2021-05-24)"
   xmlns:inkscape="http://www.inkscape.org/namespaces/inkscape"
   xmlns:sodipodi="http://sodipodi.sourceforge.net/DTD/sodipodi-0.dtd"
   xmlns:xlink="http://www.w3.org/1999/xlink"
   xmlns="http://www.w3.org/2000/svg"
   xmlns:svg="http://www.w3.org/2000/svg">
  <defs
     id="defs12">
    <linearGradient
       inkscape:collect="always"
       id="linearGradient421">
      <stop
         style="stop-color:#aa4400;stop-opacity:1;"
         offset="0"
         id="stop417" />
      <stop
         style="stop-color:#ff7f2a;stop-opacity:1"
         offset="1"
         id="stop419" />
    </linearGradient>
    <linearGradient
       inkscape:collect="always"
       xlink:href="#linearGradient421"
       id="linearGradient423"
       x1="442.52689"
       y1="146.77603"
       x2="718.13599"
       y2="593.6665"
       gradientUnits="userSpaceOnUse"
       gradientTransform="matrix(0.95836645,0,0,2.644381,-115.74806,-714.5682)" />
  </defs>
  <sodipodi:namedview
     id="namedview10"
     pagecolor="#ffffff"
     bordercolor="#666666"
     borderopacity="1.0"
     inkscape:pageshadow="2"
     inkscape:pageopacity="0.0"
     inkscape:pagecheckerboard="0"
     inkscape:document-units="pt"
     showgrid="false"
     inkscape:zoom="0.66125"
     inkscape:cx="232.13611"
     inkscape:cy="1147.0699"
     inkscape:window-width="1366"
     inkscape:window-height="718"
     inkscape:window-x="0"
     inkscape:window-y="24"
     inkscape:window-maximized="1"
     inkscape:current-layer="svg8" />
  <g
     transform="matrix(0.11788745,0,0,-0.30165151,-76.599372,1238.9716)"
     fill="#000000"
     stroke="none"
     id="g6">
    <path
       d="m 3435,5291 c -231,-4 -413,-8 -405,-10 37,-9 -100,-19 -267,-20 -109,-1 -184,-5 -188,-11 -4,-6 -91,-10 -228,-10 -147,0 -217,-4 -207,-10 13,-9 13,-10 0,-11 -19,-1 -443,-19 -612,-25 -71,-3 -128,-9 -128,-14 0,-10 -57,-40 -77,-40 -7,0 -13,-9 -13,-20 0,-11 -7,-23 -15,-26 -8,-4 -13,-10 -10,-14 3,-4 -2,-13 -10,-20 -8,-7 -15,-17 -15,-23 0,-6 -9,-21 -21,-33 -20,-22 -21,-28 -13,-263 4,-133 10,-241 14,-241 4,0 11,-7 14,-16 3,-8 2,-12 -3,-9 -5,3 -12,1 -16,-5 -3,-5 -1,-10 4,-10 6,0 11,-7 11,-15 0,-8 -4,-15 -9,-15 -12,0 -8,-39 7,-67 17,-31 14,-43 -3,-13 l -14,25 -1,-33 c 0,-18 4,-31 9,-28 14,9 21,-79 21,-285 0,-123 4,-199 10,-199 6,0 6,-9 0,-26 -14,-35 -13,-1051 0,-1059 13,-8 13,-78 1,-90 -5,-6 -11,-192 -13,-425 -2,-306 -6,-420 -16,-438 -6,-13 -12,-42 -12,-63 0,-22 -4,-39 -10,-39 -6,0 -10,-28 -10,-65 0,-36 4,-65 9,-65 6,0 9,-82 8,-201 -2,-181 0,-202 15,-213 10,-7 18,-17 18,-22 0,-14 50,-32 113,-39 31,-3 55,-10 52,-15 -3,-5 59,-11 137,-14 79,-2 222,-9 318,-14 96,-6 202,-11 235,-12 39,-1 53,-4 40,-9 -36,-14 588,-21 1990,-21 1411,0 1987,6 1963,21 -8,6 4,9 32,10 25,0 115,5 200,10 85,6 229,12 319,15 95,4 158,10 150,14 -7,5 52,6 133,3 l 146,-6 45,63 c 27,36 48,78 52,101 4,21 11,41 16,45 11,6 12,3569 1,3626 -6,33 -58,113 -145,226 -15,20 -38,37 -50,39 -12,2 -23,8 -25,13 -2,6 -62,10 -142,10 -82,0 -141,4 -145,10 -4,6 -73,10 -173,10 -185,0 -304,9 -296,21 2,5 -93,10 -213,13 -120,3 -317,9 -438,14 -121,5 -239,10 -263,11 -26,1 -41,5 -37,11 4,7 -74,10 -228,10 -128,0 -449,2 -713,3 -263,2 -668,1 -899,-2 z m 3512,-304 38,-37 3,-1813 c 2,-1794 2,-1812 -18,-1845 -11,-18 -34,-41 -52,-52 -33,-20 -56,-20 -2709,-20 H 1533 l -33,23 c -19,12 -42,36 -52,53 -17,29 -18,116 -18,1826 0,1066 3,1805 9,1819 10,26 57,73 81,82 8,3 1224,5 2702,4 l 2688,-2 z"
       id="path2" />
    <path
       d="m 1509,4951 -29,-29 V 3125 1328 l 29,-29 29,-29 h 2672 2672 l 29,29 29,29 v 1797 1797 l -29,29 -29,29 H 4210 1538 Z"
       id="path4" />
  </g>
  <path
     style="fill:url(#linearGradient423);fill-opacity:1;stroke-width:2.4075"
     d="m 77.264866,941.78634 -3.151287,-9.25562 V 298.63411 -335.26247 l 3.354397,-8.69523 3.354385,-8.69521 H 422.15477 763.48715 l 3.15129,9.25565 3.1513,9.25562 v 633.89661 633.89655 l -3.35439,8.69526 -3.3544,8.69518 H 421.74855 80.416153 Z"
     id="path126" />
  <path
     style="fill:#dca700;fill-opacity:1;stroke:#632800;stroke-width:2.29079;stroke-linejoin:bevel;stroke-miterlimit:4;stroke-dasharray:none;stroke-opacity:0.988814"
     d="m 210.26553,1003.6899 c -21.13857,-1.1117 -39.06267,-3.0977 -39.83136,-4.41348 -0.76867,-1.3158 -19.00723,-4.39597 -40.53014,-6.84484 -41.422316,-4.71304 -62.355807,-12.57943 -69.18077,-25.99667 -3.434908,-6.75277 -3.513178,-8.06878 -4.629597,-77.8457 C 54.490361,788.38082 54.500046,786.71339 56.8556,757.51239 59.629205,723.12877 61.052075,542.135 60.901142,242.90596 60.784943,12.451872 59.85624,-84.441371 57.729889,-87.973384 c -0.659663,-1.09574 -1.199395,-3.682589 -1.199395,-5.748532 0,-2.065942 0.628907,-2.711576 1.397584,-1.434741 1.771831,2.943079 1.79798,-6.071203 0.05348,-18.403773 -0.868153,-6.13706 -0.860242,-10.30601 0.0223,-11.77201 0.752621,-1.25017 0.985164,-8.4815 0.517638,-16.09705 -0.466871,-7.60497 -1.487609,-47.22341 -2.2683,-88.04104 l -1.419444,-74.21379 5.739965,-24.60474 c 3.156983,-13.53258 5.739978,-25.78471 5.739978,-27.22695 0,-3.22787 11.990188,-18.18882 16.7711,-20.92638 1.921681,-1.10034 22.046995,-3.93654 44.722915,-6.30256 22.67592,-2.36609 41.5434,-5.63519 41.92773,-7.26475 0.38434,-1.62956 12.96268,-4.03376 27.95184,-5.34267 14.98917,-1.30893 37.94461,-3.90067 51.01208,-5.75944 62.79311,-8.93189 92.64748,-10.84863 167.01215,-10.72262 44.19883,0.0749 93.56875,1.484 109.71093,3.13137 50.54399,5.1582 135.85746,16.65051 164.21698,22.12117 10.37712,2.0018 31.01123,5.39523 45.85357,7.54101 18.84055,2.72377 28.33225,5.64126 31.44582,9.66556 4.43857,5.73682 16.90127,48.62953 22.11406,76.10979 2.51652,13.26632 2.61072,35.12249 2.61072,605.7746 0,658.1849 0.68206,611.32036 -9.49702,652.52434 l -5.08518,20.58445 -13.68859,-2.60831 c -7.84803,-1.4954 -18.8996,-0.88656 -25.90169,1.42705 -18.13977,5.99358 -78.26206,15.26158 -121.92404,18.795 -41.83867,3.3858 -343.1534,3.7265 -405.30146,0.4583 z m 550.60564,-81.41928 3.91798,-11.78563 1.06461,-82.1207 c 0.58554,-45.16637 0.64649,-317.86961 0.13543,-606.00718 l -0.92916,-523.88649 -4.4423,-12.31837 -4.44231,-12.31836 H 422.93967 89.703931 l -4.723884,13.46184 -4.723874,13.46189 0.36609,604.23325 0.366077,604.23323 4.830089,13.39325 4.830089,13.39326 333.152322,-0.97723 333.15231,-0.97717 z"
     id="path3821" />
  <path
     style="fill:#ff0000;fill-opacity:1;stroke:#632800;stroke-width:1.58008;stroke-linejoin:bevel;stroke-miterlimit:4;stroke-dasharray:none;stroke-opacity:0.988814"
     id="path13395"
     d="m 120.20011,-382.88084 c -3.2912,-7.20623 -8.67462,-12.67167 -14.93618,-17.38715 -6.513826,-4.52793 -13.985659,-6.75839 -21.785413,-7.71185 -9.400303,-1.44121 -17.135967,0.91088 -25.998982,3.62086 -4.16138,1.44975 -8.529532,2.57562 -12.343723,4.85856 -10.164689,6.0839 -14.695081,7.14521 -20.104187,15.033 -3.19779,4.56408 -4.352932,9.93905 -5.023184,15.35524 -0.221409,4.12125 -0.862142,8.31558 0.636038,12.24171 0.424762,0.6132 0.746425,1.3111 1.274273,1.83963 4.470231,4.47589 13.420344,5.53194 19.289908,6.57727 9.581062,1.5845 19.288286,1.95418 28.979497,2.1577 8.725158,0.11823 17.45135,0.0627 26.176997,0.0551 5.306486,0.0515 10.644756,-0.31191 15.889106,0.70918 3.11081,0.60567 4.4938,1.20519 7.52187,2.24715 8.20107,3.10555 14.53671,8.88647 20.24757,15.30543 5.65798,5.92626 7.58878,13.47681 8.82632,21.30243 1.21248,8.10763 1.06517,16.23813 -1.44827,24.10319 -0.51781,1.62027 -1.23143,3.17239 -1.84714,4.75859 -4.59911,11.64689 -13.53147,18.64713 -23.31729,25.87347 -7.28544,5.05906 -14.40793,10.37447 -21.97775,15.01782 -1.778426,1.0909 -7.126246,4.33595 -5.404396,3.15905 2.39814,-1.63914 4.95792,-3.03218 7.436886,-4.54828 -11.722281,5.89506 -24.688645,7.55739 -37.604988,8.60582 -10.639317,0.43775 -19.643925,-1.31563 -28.79214,-6.69143 -5.215719,-3.41689 -9.350272,-7.99991 -11.762667,-13.71637 -1.643815,-4.64744 -1.692799,-9.58714 -1.78254,-14.45203 0.09191,-7.26583 2.677802,-12.22601 6.73779,-18.07182 5.858348,-7.20521 13.356087,-12.88566 20.824987,-18.34652 1.33046,-0.85602 5.372824,-3.34046 3.991365,-2.56809 -17.57466,9.82616 -8.996425,5.17377 -5.045299,3.58186 3.418605,-1.3774 6.875661,-2.16902 10.484114,-2.84618 6.401566,-1.19056 11.3589,-0.39158 16.874786,2.93884 3.674097,2.46955 6.274214,5.65656 7.464983,9.88107 1.096482,5.46031 1.206438,11.02703 0.330404,16.51354 -0.58746,2.84049 -1.683454,5.32236 -3.841743,7.33782 -0.717921,0.67039 -3.213248,2.25441 -2.350894,1.78046 14.380006,-7.90317 13.220255,-7.24723 7.070851,-4.94923 -7.394277,1.92678 -15.077754,2.44942 -22.579818,0.9473 -4.199718,-1.09705 -6.699311,-1.74394 -7.878528,-6.09569 -0.525527,-2.09424 0.148312,-3.67844 1.937685,-4.86489 0.5261,-0.34883 2.180615,-1.27495 1.634319,-0.95815 -3.754842,2.17757 -7.506651,4.36029 -11.259984,6.5404 6.868736,-3.51425 14.625186,-4.304 22.199226,-5.02508 5.878349,-0.30201 11.801708,-0.97973 17.687414,-0.38659 4.542529,0.45774 6.522591,1.07596 11.051271,2.12169 12.492666,3.55056 24.612066,8.08072 37.586236,9.75381 4.4415,0.57274 8.92043,0.81033 13.38062,1.2155 22.23653,0.94717 43.83668,-4.3645 65.36255,-9.00665 0,0 9.88385,-7.45007 9.88385,-7.45007 v 0 c -21.01794,4.47476 -42.09557,9.58528 -63.79826,8.36989 -4.33338,-0.44456 -8.68674,-0.72732 -13.00017,-1.33363 -12.79131,-1.79797 -24.72388,-6.42556 -37.034,-10.03165 -4.4665,-1.14306 -6.57821,-1.83573 -11.078366,-2.42592 -5.9177,-0.77615 -11.873162,-0.1376 -17.797597,0.1764 -7.578432,0.64732 -15.30145,1.26915 -22.358331,4.32611 -5.110214,2.94405 -10.270795,5.80366 -15.330672,8.83217 -2.784329,1.66651 -3.566672,4.59481 -2.790005,7.57702 1.5199,4.90892 4.005044,6.15525 8.934459,7.40224 7.650356,1.69693 15.452221,1.30604 23.103919,-0.31829 8.859925,-2.59521 4.683214,-1.08519 19.394297,-10.16868 1.44774,-0.8939 3.17392,-3.12602 3.96761,-4.57896 1.08641,-1.98881 1.25469,-3.37502 1.76526,-5.55027 0.74584,-5.69361 0.65823,-11.49593 -0.54521,-17.13071 -1.38398,-4.75269 -4.02692,-7.95065 -8.089232,-10.83038 -5.879943,-3.72667 -10.601284,-4.89949 -17.607099,-3.79879 -13.537278,2.18589 -24.539966,8.60194 -35.849841,16.59292 -7.485922,5.59549 -15.038885,11.36524 -20.713341,18.85607 -4.066003,6.15713 -6.513552,11.49148 -6.504908,18.99262 0.09032,5.06328 0.200549,10.18273 2.056901,14.97724 2.610888,5.98417 6.955656,10.81562 12.436418,14.43215 9.625679,5.805 18.303504,7.498 29.575895,7.28549 12.973888,-0.99583 26.056106,-2.42298 37.939135,-8.10993 6.094812,-3.38016 12.215838,-6.71415 18.284458,-10.1404 9.56267,-5.39898 18.32908,-12.05542 27.31253,-18.32208 10.05344,-7.59964 18.46321,-14.63392 23.11942,-26.71526 0.59638,-1.64299 1.28712,-3.25522 1.78914,-4.92899 2.41895,-8.06505 2.43463,-16.38611 1.22254,-24.65457 -1.28107,-8.10924 -3.25464,-15.99349 -9.17266,-22.09912 -5.87439,-6.55649 -12.37096,-12.54905 -20.67305,-15.93309 -8.34005,-3.1284 -14.81821,-3.88678 -23.7299,-3.38283 -8.728006,0.031 -17.456463,0.0623 -26.18432,-0.0101 -9.670887,-0.14703 -19.363873,-0.42578 -28.940737,-1.89456 -5.009005,-0.86834 -14.324434,-2.14135 -18.251892,-5.80617 -0.448963,-0.41892 -0.702225,-1.00516 -1.053346,-1.50773 -1.275798,-3.70049 -0.546031,-7.73389 -0.340881,-11.56711 0.699218,-5.2282 2.004877,-10.29354 5.232697,-14.60706 4.843187,-6.25835 9.488398,-7.14474 -5.996078,0.5859 -1.163339,0.58081 2.221948,-1.3582 3.398214,-1.91274 2.403473,-1.13312 6.458073,-2.44534 8.911913,-3.28943 8.524247,-2.60766 16.35859,-5.36723 25.438743,-3.98545 7.623023,0.78499 15.007875,2.62982 21.444991,6.96499 6.05819,4.49182 11.357096,9.7289 14.149266,16.86751 0,0 13.66629,-7.56084 13.66629,-7.56084 z" />
  <path
     style="fill:#ff0000;stroke:#632800;stroke-width:1.3008;stroke-linejoin:bevel;stroke-miterlimit:4;stroke-dasharray:none;stroke-opacity:0.988814"
     id="path16374"
     d="m 634.14968,872.97015 c 16.26303,-6.8244 32.28402,-16.17864 44.11597,-29.50488 2.09099,-2.35512 3.8346,-4.99704 5.75189,-7.49556 5.39484,-8.79456 9.08417,-18.44366 7.36334,-28.89342 -0.75203,-4.56674 -1.92414,-6.81241 -3.62546,-10.97082 -3.04462,-4.89996 -7.69974,-10.38012 -13.792,-11.4641 -0.78571,-0.1398 -1.59581,-0.0298 -2.39371,-0.0446 -4.60918,2.5795 -9.4432,4.79301 -13.82752,7.73852 -1.08944,0.73192 -1.63383,2.05764 -2.37057,3.14383 -4.80249,7.08033 -5.85513,13.14577 -7.34015,21.46535 -2.37293,22.60574 -2.37266,45.40478 -2.59361,68.11514 0.11772,23.93664 -0.48945,48.01356 -4.37663,71.68488 -0.6911,4.20852 -1.64426,8.36976 -2.46639,12.55464 -3.06489,9.60012 -2.39766,10.76712 -8.61816,18.42084 -1.72554,2.12316 -4.7359,3.2454 -5.87272,5.73396 -0.76195,1.668 5.25444,-1.26876 4.61867,-2.98872 -0.63084,-1.70676 -3.56056,1.01928 -5.3781,0.93408 -1.65112,-0.0768 -3.16961,-0.93924 -4.75441,-1.40892 -1.38252,-1.16796 -2.93866,-2.15688 -4.14756,-3.50376 -6.90941,-7.69764 -8.51781,-18.15576 -8.93454,-28.01844 1.46502,-11.09088 6.19411,-21.96828 14.82498,-29.406 1.39955,-1.206 3.01087,-2.14188 4.51631,-3.21288 -2.06428,1.32312 -5.18476,1.73424 -6.19283,3.96936 -0.72765,1.61328 3.34917,-1.18704 5.08761,-1.51884 6.8324,-1.3044 13.33775,0.4248 19.71308,2.6856 9.46177,4.1352 17.43987,10.86636 26.33458,15.98436 8.22308,4.73136 10.10084,5.1288 18.97697,8.72208 15.71889,5.64624 32.30105,6.85488 48.81347,4.92924 3.57017,-0.4164 7.14572,-0.91044 10.63907,-1.75656 3.07547,-0.74496 6.00403,-2.00124 9.00605,-3.00192 5.94938,-3.39984 11.89876,-6.7998 17.84814,-10.19964 0,0 -11.4755,4.41012 -11.4755,4.41012 v 0 c 1.06469,-0.55428 2.12939,-1.10856 3.19408,-1.66284 -3.01608,1.09308 -5.94774,2.45556 -9.04824,3.27924 -3.5264,0.93696 -7.14823,1.50108 -10.7648,1.98444 -16.35616,2.18616 -32.68175,0.97704 -48.27178,-4.63584 -8.65529,-3.50076 -10.69894,-3.9408 -18.65978,-8.65032 -8.83197,-5.2248 -16.69312,-12.07752 -25.98465,-16.54716 -1.65805,-0.64356 -3.27416,-1.40796 -4.97418,-1.9308 -5.74721,-1.76748 -14.85248,-2.7744 -20.45057,-0.0816 -5.38017,2.58768 -10.42647,5.81868 -15.63972,8.72808 -1.45555,1.131 -3.01837,2.13624 -4.36668,3.39324 -8.46867,7.89528 -12.96346,19.02996 -14.37152,30.31836 0.57208,10.33488 2.35416,20.76732 9.37042,28.9404 1.28215,1.49364 2.91264,2.64864 4.36896,3.97284 1.71709,0.61644 3.33715,1.656 5.15126,1.8492 1.93717,0.2064 4.03536,0.13344 5.80441,-0.68244 11.62497,-5.3616 21.92163,-11.67648 27.08933,-23.72772 1.4235,-3.31956 2.00638,-6.93972 3.00956,-10.40952 0.74008,-4.16796 1.58945,-8.3178 2.22021,-12.50364 3.58597,-23.79696 4.41507,-47.94528 4.63682,-71.97276 0.18287,-22.75668 0.0919,-45.65292 3.31683,-68.22675 1.31125,-6.21893 2.48077,-12.01078 5.72696,-17.55043 0.72079,-1.23004 1.4962,-2.43555 2.38462,-3.55054 0.81085,-1.01765 3.93452,-3.21923 2.69474,-2.8242 -3.28892,1.04795 -6.09035,3.25094 -9.13552,4.87642 0.72192,-0.11724 1.43525,-0.38722 2.16576,-0.3517 5.62916,0.27374 10.76921,5.96444 13.53953,10.24865 0.68791,1.60331 1.50475,3.15726 2.06374,4.80995 4.16885,12.32554 0.85578,22.86358 -5.82337,33.59644 -5.66081,7.20492 -5.74409,7.99608 -12.81874,14.14104 -2.59931,2.2578 -5.6492,3.98412 -8.12744,6.37416 -0.62231,0.60012 3.18534,-1.32036 2.43741,-0.88668 -4.84238,2.80776 -5.35748,2.8188 -9.63866,4.2702 0,0 -10.54926,8.30976 -10.54926,8.30976 z" />
</svg>
