<?xml version="1.0" encoding="UTF-8" standalone="no"?>
<svg
   version="1.0"
   width="800.000000pt"
   height="600.000000pt"
   viewBox="0 0 800.000000 600.000000"
   preserveAspectRatio="xMidYMid meet"
   id="svg8"
   sodipodi:docname="borderbaru.png.svg"
   inkscape:version="1.1 (c4e8f9ed74, 2021-05-24)"
   xmlns:inkscape="http://www.inkscape.org/namespaces/inkscape"
   xmlns:sodipodi="http://sodipodi.sourceforge.net/DTD/sodipodi-0.dtd"
   xmlns:xlink="http://www.w3.org/1999/xlink"
   xmlns="http://www.w3.org/2000/svg"
   xmlns:svg="http://www.w3.org/2000/svg">
  <defs
     id="defs12">
    <linearGradient
       inkscape:collect="always"
       id="linearGradient421">
      <stop
         style="stop-color:#aa4400;stop-opacity:1;"
         offset="0"
         id="stop417" />
      <stop
         style="stop-color:#ff7f2a;stop-opacity:1"
         offset="1"
         id="stop419" />
    </linearGradient>
    <linearGradient
       inkscape:collect="always"
       xlink:href="#linearGradient421"
       id="linearGradient423"
       x1="442.52689"
       y1="146.77603"
       x2="718.13599"
       y2="593.6665"
       gradientUnits="userSpaceOnUse"
       gradientTransform="matrix(0.75,0,0,0.75,-6.6963299,40.743378)" />
  </defs>
  <sodipodi:namedview
     id="namedview10"
     pagecolor="#ffffff"
     bordercolor="#666666"
     borderopacity="1.0"
     inkscape:pageshadow="2"
     inkscape:pageopacity="0.0"
     inkscape:pagecheckerboard="0"
     inkscape:document-units="pt"
     showgrid="false"
     inkscape:zoom="0.66125"
     inkscape:cx="533.08129"
     inkscape:cy="419.65974"
     inkscape:window-width="1366"
     inkscape:window-height="718"
     inkscape:window-x="0"
     inkscape:window-y="24"
     inkscape:window-maximized="1"
     inkscape:current-layer="svg8" />
  <g
     transform="matrix(0.1,0,0,-0.1,-6.6963299,639.24338)"
     fill="#000000"
     stroke="none"
     id="g6">
    <path
       d="m 3435,5291 c -231,-4 -413,-8 -405,-10 37,-9 -100,-19 -267,-20 -109,-1 -184,-5 -188,-11 -4,-6 -91,-10 -228,-10 -147,0 -217,-4 -207,-10 13,-9 13,-10 0,-11 -19,-1 -443,-19 -612,-25 -71,-3 -128,-9 -128,-14 0,-10 -57,-40 -77,-40 -7,0 -13,-9 -13,-20 0,-11 -7,-23 -15,-26 -8,-4 -13,-10 -10,-14 3,-4 -2,-13 -10,-20 -8,-7 -15,-17 -15,-23 0,-6 -9,-21 -21,-33 -20,-22 -21,-28 -13,-263 4,-133 10,-241 14,-241 4,0 11,-7 14,-16 3,-8 2,-12 -3,-9 -5,3 -12,1 -16,-5 -3,-5 -1,-10 4,-10 6,0 11,-7 11,-15 0,-8 -4,-15 -9,-15 -12,0 -8,-39 7,-67 17,-31 14,-43 -3,-13 l -14,25 -1,-33 c 0,-18 4,-31 9,-28 14,9 21,-79 21,-285 0,-123 4,-199 10,-199 6,0 6,-9 0,-26 -14,-35 -13,-1051 0,-1059 13,-8 13,-78 1,-90 -5,-6 -11,-192 -13,-425 -2,-306 -6,-420 -16,-438 -6,-13 -12,-42 -12,-63 0,-22 -4,-39 -10,-39 -6,0 -10,-28 -10,-65 0,-36 4,-65 9,-65 6,0 9,-82 8,-201 -2,-181 0,-202 15,-213 10,-7 18,-17 18,-22 0,-14 50,-32 113,-39 31,-3 55,-10 52,-15 -3,-5 59,-11 137,-14 79,-2 222,-9 318,-14 96,-6 202,-11 235,-12 39,-1 53,-4 40,-9 -36,-14 588,-21 1990,-21 1411,0 1987,6 1963,21 -8,6 4,9 32,10 25,0 115,5 200,10 85,6 229,12 319,15 95,4 158,10 150,14 -7,5 52,6 133,3 l 146,-6 45,63 c 27,36 48,78 52,101 4,21 11,41 16,45 11,6 12,3569 1,3626 -6,33 -58,113 -145,226 -15,20 -38,37 -50,39 -12,2 -23,8 -25,13 -2,6 -62,10 -142,10 -82,0 -141,4 -145,10 -4,6 -73,10 -173,10 -185,0 -304,9 -296,21 2,5 -93,10 -213,13 -120,3 -317,9 -438,14 -121,5 -239,10 -263,11 -26,1 -41,5 -37,11 4,7 -74,10 -228,10 -128,0 -449,2 -713,3 -263,2 -668,1 -899,-2 z m 3512,-304 38,-37 3,-1813 c 2,-1794 2,-1812 -18,-1845 -11,-18 -34,-41 -52,-52 -33,-20 -56,-20 -2709,-20 H 1533 l -33,23 c -19,12 -42,36 -52,53 -17,29 -18,116 -18,1826 0,1066 3,1805 9,1819 10,26 57,73 81,82 8,3 1224,5 2702,4 l 2688,-2 z"
       id="path2" />
    <path
       d="m 1509,4951 -29,-29 V 3125 1328 l 29,-29 29,-29 h 2672 2672 l 29,29 29,29 v 1797 1797 l -29,29 -29,29 H 4210 1538 Z"
       id="path4" />
  </g>
  <path
     style="fill:url(#linearGradient423);fill-opacity:1;stroke-width:1.13422"
     d="m 144.35205,510.51905 -2.46614,-2.62508 V 328.10806 148.32216 l 2.62509,-2.46614 2.62508,-2.46614 h 267.1205 267.12048 l 2.46615,2.62509 2.46614,2.62508 v 179.78591 179.78589 l -2.62508,2.46615 -2.62509,2.46613 H 413.93868 146.81819 Z"
     id="path126" />
  <path
     style="fill:#dca700;fill-opacity:1;stroke:#632800;stroke-width:1.134;stroke-linejoin:bevel;stroke-miterlimit:4;stroke-dasharray:none;stroke-opacity:0.988814"
     d="m 241.69687,537.77428 c -17.15501,-0.33567 -31.70132,-0.93536 -32.32514,-1.33266 -0.62382,-0.39731 -15.42533,-1.32738 -32.89225,-2.06683 -33.61629,-1.42312 -50.60487,-3.79841 -56.14367,-7.8498 -2.7876,-2.03903 -2.85112,-2.4364 -3.75715,-23.50583 -1.30116,-30.25833 -1.2933,-30.76182 0.61835,-39.57918 2.25092,-10.38228 3.40565,-65.03409 3.28316,-155.38752 -0.0943,-69.58656 -0.84799,-98.84387 -2.57363,-99.91038 -0.53535,-0.33086 -0.97337,-1.11197 -0.97337,-1.73579 0,-0.62382 0.51039,-0.81877 1.13421,-0.43323 1.43793,0.88868 1.45915,-1.83322 0.0434,-5.55709 -0.70455,-1.85311 -0.69813,-3.11194 0.0181,-3.55461 0.61079,-0.37749 0.79951,-2.56102 0.42009,-4.86057 -0.37889,-2.29635 -1.20727,-14.2593 -1.84084,-26.58435 l -1.15195,-22.40916 4.65827,-7.4295 c 2.56205,-4.08622 4.65828,-7.7858 4.65828,-8.22129 0,-0.97467 9.73064,-5.49219 13.61059,-6.31881 1.55954,-0.33225 17.89224,-1.18865 36.29489,-1.90308 18.40265,-0.71445 33.71455,-1.70157 34.02646,-2.19362 0.31191,-0.49205 10.51986,-1.21801 22.68432,-1.61324 12.16446,-0.39524 30.79395,-1.17783 41.39886,-1.73909 50.95976,-2.69702 75.18808,-3.27579 135.53875,-3.23774 35.86957,0.0226 75.93573,0.4481 89.03592,0.94553 41.01899,1.55754 110.25515,5.02769 133.27032,6.67958 8.42156,0.60445 25.16718,1.62911 37.21249,2.27704 15.29005,0.82245 22.99303,1.7034 25.51985,2.91855 3.60213,1.73226 13.71623,14.68389 17.94667,22.98167 2.04228,4.00582 2.11873,10.60538 2.11873,182.91612 0,198.74163 0.55353,184.59069 -7.7073,197.0324 l -4.12689,6.21556 -11.10897,-0.78759 c -6.36907,-0.45154 -15.33797,-0.2677 -21.02052,0.4309 -14.72134,1.80979 -63.5136,4.6083 -98.94748,5.67522 -33.95418,1.02236 -278.48621,1.12523 -328.92249,0.13839 z m 446.84412,-24.58488 3.17964,-3.55872 0.86399,-24.79668 c 0.47519,-13.63817 0.52465,-95.98203 0.1099,-182.98635 l -0.75406,-158.18968 -3.60515,-3.71958 -3.60516,-3.71958 H 414.29261 143.85508 l -3.83367,4.06486 -3.83366,4.06487 0.2971,182.45071 0.29709,182.4507 3.91986,4.04415 3.91986,4.04415 270.36983,-0.29508 270.36983,-0.29506 z"
     id="path3821" />
  <path
     style="fill:#ff0000;fill-opacity:1;stroke:#632800;stroke-width:1.134;stroke-linejoin:bevel;stroke-miterlimit:4;stroke-dasharray:none;stroke-opacity:0.988814"
     id="path13663"
     d="m 637.17798,485.07017 c 4.53506,-4.7079 8.57992,-9.88968 12.15832,-15.35594 1.99128,-3.46867 4.29983,-7.14338 3.8374,-11.28047 -1.61463,-3.82743 -5.93145,-5.5302 -9.54144,-7.00725 -5.22263,-1.82982 -6.67373,0.0598 -12.35822,3.87466 -0.47584,0.31935 -0.93182,2.74504 -0.99931,3.02971 -0.9381,5.51187 -0.34152,11.13018 0.50829,16.61111 1.10223,6.76026 2.50845,13.46228 3.43799,20.25034 1.0895,8.29032 1.10747,16.59812 0.15502,24.89092 -0.83535,4.75497 -2.1824,9.44095 -4.97008,13.45117 -1.50921,2.17106 -2.58192,3.03328 -4.47115,4.86741 2.38913,-0.94911 -7.24511,4.87928 -5.35347,3.78485 1.4095,-0.81549 2.98142,-1.44136 4.1534,-2.57193 0.71051,-0.68541 -1.79509,0.82488 -2.71465,1.18401 -2.43306,0.95024 -2.52369,0.87565 -4.96005,1.4088 -4.81728,0.62667 -6.68568,-1.5809 -8.32404,-5.76831 -1.24731,-4.74026 -1.70201,-9.03837 -0.2253,-13.7708 0.70666,-1.82754 1.87517,-3.40874 3.39913,-4.64706 0.46973,-0.38167 2.03772,-1.3053 1.51231,-1.00486 -6.90995,3.95128 -7.37095,4.02884 -3.96839,2.70174 4.30011,-1.39949 8.72801,-0.8742 13.10096,-0.1867 7.45055,1.75173 14.64642,4.39525 21.89676,6.81401 9.28761,2.86657 18.83445,4.79522 28.40896,6.41004 7.63872,1.06021 15.35897,1.9309 23.0709,1.37136 3.40698,-0.38704 6.41385,-1.84971 9.31152,-3.60462 7.78689,-4.71594 9.85743,-5.73028 15.45247,-11.09716 3.03685,-3.16701 5.84214,-6.53207 7.80738,-10.4822 0.85173,-1.71198 1.85264,-4.32787 2.5604,-6.10307 2.34277,-6.59687 2.79302,-13.64615 3.15375,-20.58016 0.33073,-4.63375 0.32693,-9.22854 -1.11627,-13.67601 -0.51489,-1.83279 -1.55441,-3.18823 -3.09463,-4.2465 -1.10669,-0.63937 -2.3254,-0.85189 -3.57278,-0.61365 -1.51627,0.27972 -2.94893,0.81727 -4.38217,1.36883 -0.85637,0.37801 -1.7287,0.71029 -2.5713,1.1187 0,0 -6.59913,5.25421 -6.59913,5.25421 v 0 c 0.85624,-0.39344 1.66676,-0.83997 2.56554,-1.13952 1.34724,-0.68161 2.8097,-1.16843 4.28217,-1.47587 1.1043,-0.34583 2.07682,-0.46238 3.17666,0.0573 1.47553,0.84794 2.39079,2.0467 2.88014,3.70274 1.45066,4.31567 1.41211,8.81261 1.13716,13.31967 -0.3463,6.86915 -0.83564,13.83735 -3.27373,20.33725 -0.84829,2.08435 -1.57349,4.00607 -2.61581,6.00622 -2.01107,3.85908 -4.84719,7.14645 -7.86655,10.24662 -0.86161,0.80482 -1.69452,1.64151 -2.58484,2.41445 -0.93617,0.81275 -4.00383,1.79285 -2.89118,2.33965 1.284,0.63101 2.43792,-1.88821 3.86829,-1.85946 1.23321,0.0248 -2.09334,1.31105 -3.19131,1.87308 -0.97768,0.50044 -1.98318,0.95779 -3.02403,1.3084 -0.91695,0.30888 -1.88412,0.44151 -2.82618,0.66225 -7.71051,0.72645 -15.44298,-0.094 -23.09801,-1.10609 -9.54641,-1.52925 -19.03663,-3.49614 -28.28758,-6.33593 -7.24697,-2.45827 -14.4557,-5.06464 -21.86826,-6.9907 -4.40237,-0.77913 -8.84907,-1.45796 -13.24328,-0.22584 -6.1405,1.93834 -12.54657,5.43125 -14.98503,11.62021 -1.22913,4.73537 -0.87409,9.56032 0.46421,14.25529 1.73745,4.39842 3.83524,7.1777 8.98216,6.71645 8.58814,-1.60784 16.28216,-6.45637 22.99288,-11.91101 1.96186,-2.00664 2.84231,-2.70901 4.38253,-5.06612 2.70006,-4.13212 3.98193,-8.89464 4.75425,-13.71739 0.89284,-8.36397 0.85635,-16.73813 -0.19235,-25.09656 -0.93658,-6.79461 -2.31923,-13.50869 -3.4077,-20.27897 -0.79824,-5.40439 -1.36846,-10.96161 -0.21235,-16.36054 0.18175,-0.52171 0.28981,-1.07527 0.54525,-1.56513 0.1852,-0.35514 1.12252,-1.09743 0.75737,-0.93286 -2.20649,0.99445 -4.25305,2.31118 -6.37957,3.46677 0.35661,-0.081 0.70478,-0.22127 1.06983,-0.24299 1.09407,-0.0651 1.90284,0.26769 2.95604,0.55594 3.27055,1.2509 7.55152,2.80296 9.00541,6.25814 0.26847,3.91276 -2.0395,7.4145 -3.89596,10.69026 -3.6398,5.47227 -7.71665,10.68027 -12.41405,15.29073 0,0 7.7353,-3.21159 7.7353,-3.21159 z" />
</svg>
